HIERARCHY
ROOT Hips
{
	OFFSET 0.00000 0.00000 0.00000
	CHANNELS 6 Xposition Yposition Zposition Zrotation Yrotation Xrotation 
	JOINT LHipJoint
	{
		OFFSET 0 0 0
		CHANNELS 3 Zrotation Yrotation Xrotation
		JOINT LeftUpLeg
		{
			OFFSET 1.55766 -1.60504 1.11378
			CHANNELS 3 Zrotation Yrotation Xrotation
			JOINT LeftLeg
			{
				OFFSET 2.29047 -6.29302 0.00000
				CHANNELS 3 Zrotation Yrotation Xrotation
				JOINT LeftFoot
				{
					OFFSET 2.52265 -6.93093 0.00000
					CHANNELS 3 Zrotation Yrotation Xrotation
					JOINT LeftToeBase
					{
						OFFSET 0.17633 -0.48446 2.02656
						CHANNELS 3 Zrotation Yrotation Xrotation
						End Site
						{
							OFFSET 0.00000 -0.00000 1.04989
						}
					}
				}
			}
		}
	}
	JOINT RHipJoint
	{
		OFFSET 0 0 0
		CHANNELS 3 Zrotation Yrotation Xrotation
		JOINT RightUpLeg
		{
			OFFSET -1.48599 -1.60504 1.11378
			CHANNELS 3 Zrotation Yrotation Xrotation
			JOINT RightLeg
			{
				OFFSET -2.27280 -6.24448 0.00000
				CHANNELS 3 Zrotation Yrotation Xrotation
				JOINT RightFoot
				{
					OFFSET -2.50834 -6.89161 0.00000
					CHANNELS 3 Zrotation Yrotation Xrotation
					JOINT RightToeBase
					{
						OFFSET -0.26967 -0.74090 2.08741
						CHANNELS 3 Zrotation Yrotation Xrotation
						End Site
						{
							OFFSET -0.00000 -0.00000 1.10614
						}
					}
				}
			}
		}
	}
	JOINT LowerBack
	{
		OFFSET 0 0 0
		CHANNELS 3 Zrotation Yrotation Xrotation
		JOINT Spine
		{
			OFFSET 0.06481 2.02437 -0.08472
			CHANNELS 3 Zrotation Yrotation Xrotation
			JOINT Spine1
			{
				OFFSET 0.00015 1.96711 0.18069
				CHANNELS 3 Zrotation Yrotation Xrotation
				JOINT Neck
				{
					OFFSET 0 0 0
					CHANNELS 3 Zrotation Yrotation Xrotation
					JOINT Neck1
					{
						OFFSET -0.29961 1.68293 -0.13041
						CHANNELS 3 Zrotation Yrotation Xrotation
						JOINT Head
						{
							OFFSET 0.59697 1.61501 -0.14669
							CHANNELS 3 Zrotation Yrotation Xrotation
							End Site
							{
								OFFSET 0.22973 1.74906 -0.10148
							}
						}
					}
				}
				JOINT LeftShoulder
				{
					OFFSET 0 0 0
					CHANNELS 3 Zrotation Yrotation Xrotation
					JOINT LeftArm
					{
						OFFSET 3.37968 1.02893 0.31147
						CHANNELS 3 Zrotation Yrotation Xrotation
						JOINT LeftForeArm
						{
							OFFSET 5.19807 -0.00000 -0.00000
							CHANNELS 3 Zrotation Yrotation Xrotation
							JOINT LeftHand
							{
								OFFSET 3.09370 -0.00000 -0.00000
								CHANNELS 3 Zrotation Yrotation Xrotation
								JOINT LeftFingerBase
								{
									OFFSET 0 0 0
									CHANNELS 3 Zrotation Yrotation Xrotation
									JOINT LeftHandIndex1
									{
										OFFSET 0.67263 -0.00000 -0.00000
										CHANNELS 3 Zrotation Yrotation Xrotation
										End Site
										{
											OFFSET 0.54229 -0.00000 -0.00000
										}
									}
								}
								JOINT LThumb
								{
									OFFSET 0 0 0
									CHANNELS 3 Zrotation Yrotation Xrotation
									End Site
									{
										OFFSET 0.55057 -0.00000 0.55057
									}
								}
							}
						}
					}
				}
				JOINT RightShoulder
				{
					OFFSET 0 0 0
					CHANNELS 3 Zrotation Yrotation Xrotation
					JOINT RightArm
					{
						OFFSET -3.38254 0.96355 -0.16120
						CHANNELS 3 Zrotation Yrotation Xrotation
						JOINT RightForeArm
						{
							OFFSET -5.45222 -0.00000 -0.00000
							CHANNELS 3 Zrotation Yrotation Xrotation
							JOINT RightHand
							{
								OFFSET -3.01284 -0.00000 -0.00000
								CHANNELS 3 Zrotation Yrotation Xrotation
								JOINT RightFingerBase
								{
									OFFSET 0 0 0
									CHANNELS 3 Zrotation Yrotation Xrotation
									JOINT RightHandIndex1
									{
										OFFSET -0.62230 -0.00000 -0.00000
										CHANNELS 3 Zrotation Yrotation Xrotation
										End Site
										{
											OFFSET -0.50171 -0.00000 -0.00000
										}
									}
								}
								JOINT RThumb
								{
									OFFSET 0 0 0
									CHANNELS 3 Zrotation Yrotation Xrotation
									End Site
									{
										OFFSET -0.50937 -0.00000 0.50937
									}
								}
							}
						}
					}
				}
			}
		}
	}
}
MOTION
Frames: 5
Frame Time: .0083333
-5.3413 17.0943 -23.564 0 0 0 0 0 0 -21 0 0 0 0 0 0 0 0 0 0 0 0 0 0 21 0 0 0 0 0 0 0 0 0 0 0 0 0 0 0 0 0 0 0 0 0 0 -16 0 0 21 0 0 11 0 0 0 -8 0 0 0 0 0 0 0 0 0 0 0 0 0 0 0 0 0 0 0 0 8 0 0 0 0 0 0 0 0 0 0 0 0 0 0 0 0 0
-5.3413 17.0943 -23.5640 -179.6930 -13.8463 -166.9370 0.0000 0.0000 0.0000 -16.1863 -4.8652 -24.0781 2.0026 8.8716 25.3944 -0.7835 -23.1672 -10.0360 0.2590 -3.2744 -9.0436 0.0000 0.0000 0.0000 24.9447 -12.8426 -24.1482 -1.4894 -7.7100 21.8367 0.9755 26.2991 -11.7763 -0.1150 2.1866 -6.0217 7.1228 7.3286 -7.7565 -3.0425 8.6172 -8.6037 -6.5836 3.5559 -3.1853 -26.4898 3.3359 -11.7165 33.1335 2.6155 19.8123 17.8309 1.7093 6.6210 -0.0000 -0.0000 0.0000 -82.1157 10.1223 39.3371 16.5342 -26.2396 -3.8791 -0.0000 0.0000 -30.0560 5.6012 -10.4759 -1.0216 -7.1250 0.0000 -0.0000 -15.1009 19.6248 9.4841 -0.0000 -0.0000 0.0000 89.0744 -9.7445 10.9182 -17.6540 27.7118 -4.3871 0.0000 0.0000 17.4910 -11.2778 -0.7602 0.1516 7.1250 -0.0000 -0.0000 12.0793 -30.6249 4.3270
-5.3514 17.0934 -23.5661 -179.6730 -13.8462 -166.9550 0.0000 0.0000 0.0000 -16.1993 -4.8717 -24.0495 2.0049 8.8762 25.4089 -0.7856 -23.1682 -10.0178 0.2460 -3.1918 -8.8131 0.0000 0.0000 0.0000 24.9204 -12.8511 -24.1082 -1.4876 -7.7056 21.8233 0.9745 26.2972 -11.7821 -0.1197 2.2306 -6.1435 7.1463 7.3839 -7.7118 -3.0607 8.7011 -8.5659 -6.6095 3.6032 -3.1501 -26.6840 3.1461 -11.5987 33.1740 2.3829 19.5935 17.8752 1.5776 6.6150 0.0000 0.0000 0.0000 -82.1305 10.1262 40.4499 16.9082 -26.7366 -4.0460 -0.0000 0.0000 -32.4542 7.6582 -9.9208 -1.3271 -7.1250 0.0000 -0.0000 -13.7114 20.0999 8.4055 0.0000 0.0000 0.0000 88.9482 -9.4846 10.8885 -17.6576 27.7165 -4.3888 0.0000 0.0000 17.2809 -11.5052 -0.8432 0.1716 7.1250 -0.0000 -0.0000 11.9123 -30.7124 4.2393
-5.3604 17.0949 -23.5676 -179.7000 -13.8596 -166.9110 0.0000 0.0000 0.0000 -16.2650 -4.8645 -24.1061 2.0084 8.8836 25.4319 -0.7919 -23.2181 -10.0138 0.2530 -3.2363 -8.9374 0.0000 0.0000 0.0000 24.8646 -12.8426 -24.1227 -1.4835 -7.6954 21.7927 0.9773 26.2731 -11.7345 -0.1212 2.2441 -6.1808 6.9772 7.2718 -7.8215 -3.0015 8.5412 -8.5947 -6.4608 3.5255 -3.1768 -26.5706 3.1643 -11.3220 33.1191 2.3214 19.5234 17.7911 1.5283 6.5626 -0.0000 -0.0000 0.0000 -82.2172 10.3223 41.0874 17.1952 -27.1144 -4.1759 -0.0000 0.0000 -34.8588 9.6648 -9.5660 -1.6211 -7.1250 0.0000 -0.0000 -12.3241 20.3777 7.4331 -0.0000 -0.0000 0.0000 88.8467 -9.3657 10.9892 -17.7340 27.8153 -4.4244 0.0000 0.0000 17.4393 -11.4407 -0.8935 0.1808 7.1250 -0.0000 -0.0000 11.9692 -30.7613 4.2460
-5.3697 17.0954 -23.5690 -179.6570 -13.8786 -166.9090 0.0000 0.0000 0.0000 -16.2457 -4.8889 -24.1151 2.0118 8.8906 25.4537 -0.7952 -23.2174 -9.9831 0.2444 -3.1815 -8.7845 0.0000 0.0000 0.0000 24.8731 -12.8181 -24.0932 -1.4800 -7.6867 21.7665 0.9680 26.2340 -11.7659 -0.1271 2.2985 -6.3313 6.9374 7.2302 -7.8382 -2.9728 8.4795 -8.6385 -6.4164 3.4897 -3.2334 -26.6805 3.0301 -11.0223 33.1648 2.0701 19.3765 17.8133 1.3710 6.5471 0.0000 0.0000 0.0000 -82.1976 10.6300 41.9558 17.6577 -27.7167 -4.3889 -0.0000 0.0000 -37.0586 11.5930 -9.2182 -1.8822 -7.1250 0.0000 -0.0000 -10.9771 20.6477 6.5202 0.0000 0.0000 0.0000 88.7601 -9.2409 11.0536 -17.6953 27.7653 -4.4064 0.0000 0.0000 17.4468 -11.6273 -0.8105 0.1668 7.1250 -0.0000 -0.0000 11.8128 -30.6824 4.2112
